<svg xmlns="http://www.w3.org/2000/svg" xmlns:xlink="http://www.w3.org/1999/xlink" width="190.105" height="184.755" viewBox="0 0 190.105 184.755"><defs><style>.a,.g,.i{fill:none;}.a,.b,.c,.h,.i,.j,.k,.l{stroke:#000;}.a,.b,.c,.g{stroke-miterlimit:10;}.a,.b,.c,.g,.h,.i,.j,.k,.l{stroke-width:3px;}.b,.d,.j{fill:#ccc;}.c,.e,.k,.l{fill:#fff;}.f,.h{fill:#009dff;}.g{stroke:#009dff;}.h,.j,.l{stroke-linecap:round;stroke-linejoin:round;}.m{clip-path:url(#a);}</style><clipPath id="a"><circle cx="26.347" cy="26.347" r="26.347"/></clipPath></defs><g transform="translate(-83.4 -48.2)"><path class="a" d="M267.591,219.189H89.358a4.471,4.471,0,0,1-4.458-4.458V107.158a4.471,4.471,0,0,1,4.458-4.458H267.546A4.471,4.471,0,0,1,272,107.158V214.731A4.4,4.4,0,0,1,267.591,219.189Z" transform="translate(0 -29.372)"/><path class="b" d="M272.049,326.8H84.9v12.126a4.471,4.471,0,0,0,4.458,4.458H267.546A4.471,4.471,0,0,0,272,338.926V326.8Z" transform="translate(0 -153.568)"/><rect class="c" width="59.649" height="41.638" transform="translate(148.65 189.816)"/><line class="a" x2="187.149" transform="translate(84.9 231.455)"/><g transform="translate(98.096 83.893)"><rect class="d" width="21.265" height="21.265" transform="translate(0 0)"/><line class="a" x2="44.268" transform="translate(27.684 3.076)"/><line class="a" x2="44.268" transform="translate(27.684 10.12)"/><line class="a" x2="44.268" transform="translate(27.684 17.208)"/></g><g transform="translate(98.096 111.176)"><rect class="d" width="21.265" height="21.265" transform="translate(0 0)"/><line class="a" x2="44.268" transform="translate(27.684 3.076)"/><line class="a" x2="44.268" transform="translate(27.684 10.12)"/><line class="a" x2="44.268" transform="translate(27.684 17.163)"/></g><g transform="translate(98.096 138.415)"><rect class="d" width="21.265" height="21.265"/><line class="a" x2="44.268" transform="translate(27.684 3.076)"/><line class="a" x2="44.268" transform="translate(27.684 10.12)"/><line class="a" x2="44.268" transform="translate(27.684 17.208)"/></g><g transform="translate(186.231 83.893)"><rect class="d" width="21.265" height="21.265" transform="translate(0 0)"/><line class="a" x2="44.268" transform="translate(27.64 3.076)"/><line class="a" x2="44.268" transform="translate(27.64 10.12)"/><line class="a" x2="44.268" transform="translate(27.64 17.208)"/></g><g transform="translate(186.231 111.176)"><rect class="d" width="21.265" height="21.265" transform="translate(0 0)"/><line class="a" x2="44.268" transform="translate(27.64 3.076)"/><line class="a" x2="44.268" transform="translate(27.64 10.12)"/><line class="a" x2="44.268" transform="translate(27.64 17.163)"/></g><g transform="translate(186.231 138.415)"><rect class="d" width="21.265" height="21.265" transform="translate(0)"/><line class="a" x2="44.268" transform="translate(27.64 3.076)"/><line class="a" x2="44.268" transform="translate(27.64 10.12)"/><line class="a" x2="44.268" transform="translate(27.64 17.208)"/></g><g transform="translate(95.154 49.7)"><rect class="c" width="97.899" height="80.111"/><rect class="b" width="97.899" height="17.074"/><circle class="e" cx="3.344" cy="3.344" r="3.344" transform="translate(6.821 5.171)"/><circle class="e" cx="3.344" cy="3.344" r="3.344" transform="translate(16.406 5.171)"/><circle class="e" cx="3.344" cy="3.344" r="3.344" transform="translate(25.946 5.171)"/><g transform="translate(9.54 26.392)"><rect class="f" width="24.296" height="43.109" transform="translate(3.968)"/><g transform="translate(8.337 5.439)"><rect class="e" width="6.509" height="6.509"/><rect class="e" width="6.509" height="6.509" transform="translate(9.005)"/></g><g transform="translate(8.337 14.355)"><rect class="e" width="6.509" height="6.509"/><rect class="e" width="6.509" height="6.509" transform="translate(9.005)"/></g><g transform="translate(8.337 23.226)"><rect class="e" width="6.509" height="6.509"/><rect class="e" width="6.509" height="6.509" transform="translate(9.005)"/></g><g transform="translate(8.337 32.098)"><rect class="e" width="6.509" height="6.509"/><rect class="e" width="6.509" height="6.509" transform="translate(9.005)"/></g><line class="g" x2="32.187" transform="translate(0 43.109)"/></g><path class="h" d="M252.691,165.276V161.4a2.892,2.892,0,0,0-2.9-2.9l-3.879,8.693v10.655h10.922a1.926,1.926,0,0,0,1.917-1.649l1.337-8.693a1.892,1.892,0,0,0-1.6-2.184c-.089,0-.223-.045-.312,0h-5.483Zm-6.776,12.572h-2.9a1.9,1.9,0,0,1-1.917-1.917v-6.776a1.9,1.9,0,0,1,1.917-1.917h2.9" transform="translate(-181.719 -109.996)"/><line class="i" x2="35.27" transform="translate(51.282 27.394)"/><line class="i" x2="35.219" transform="translate(51.268 34.193)"/><line class="i" x2="35.219" transform="translate(51.268 40.747)"/></g><g transform="translate(156.585 103.241)"><rect class="j" width="5.127" height="10.744" transform="translate(56.335 59.956) rotate(-45)"/><circle class="k" cx="34.907" cy="34.907" r="34.907" transform="translate(0 0)"/><circle class="k" cx="26.347" cy="26.347" r="26.347" transform="translate(8.559 8.559)"/><rect class="l" width="13.82" height="62.056" transform="translate(60.91 70.559) rotate(-45)"/><rect class="h" width="13.82" height="14.979" transform="translate(94.209 103.812) rotate(-45)"/></g><g transform="translate(165.145 111.801)"><g class="m" transform="translate(0 0)"><path class="h" d="M282.836,183.785v-7.579a5.717,5.717,0,0,0-5.706-5.706l-7.579,17.074v20.864h21.4a3.8,3.8,0,0,0,3.789-3.21l2.63-17.074a3.813,3.813,0,0,0-3.165-4.324,2.944,2.944,0,0,0-.624-.045ZM269.6,208.438h-5.706a3.786,3.786,0,0,1-3.789-3.789V191.364a3.786,3.786,0,0,1,3.789-3.789H269.6" transform="translate(-262.24 -178.747)"/></g></g><circle class="i" cx="26.347" cy="26.347" r="26.347" transform="translate(165.145 111.801)"/></g></svg>