<svg xmlns="http://www.w3.org/2000/svg" width="317.85" height="670.592" viewBox="0 0 317.85 670.592"><defs><style>.a{fill:#009dff;}</style></defs><path class="a" d="M154.152,11.552a158.54,158.54,0,0,1,57.281,15.469,164.718,164.718,0,0,1,46.457,33.653A162.837,162.837,0,0,1,289.772,107.8a154.028,154.028,0,0,1,13.207,56.5,144.141,144.141,0,0,1-8.939,56.463,138.981,138.981,0,0,1-75.061,78.776,146.557,146.557,0,0,1-58.812,11.929A157.049,157.049,0,0,1,99.118,298.9a164.5,164.5,0,0,1-86.185-85.212A153.326,153.326,0,0,1,.1,152.36,142.935,142.935,0,0,1,12.806,93,138.332,138.332,0,0,1,46.709,47,140.7,140.7,0,0,1,95.7,18.656,148.6,148.6,0,0,1,154.152,11.552Z"/><path class="a" d="M155.029,9.37,0,608.726l317.526-25.974Z" transform="translate(0.321 61.865)"/></svg>