<svg xmlns="http://www.w3.org/2000/svg" width="203.028" height="185.022" viewBox="0 0 203.028 185.022"><defs><style>.a,.e{fill:#fff;}.a,.c,.d,.e,.f,.g,.h{stroke:#000;stroke-miterlimit:10;stroke-width:3px;}.a,.c,.d{stroke-linecap:round;stroke-linejoin:round;}.b,.g,.h{fill:none;}.c{fill:#ccc;}.d,.f{fill:#009dff;}.h{stroke-dasharray:4 3;}</style></defs><g transform="translate(-58.6 -33.7)"><rect class="a" width="168.596" height="138.446" transform="translate(60.1 43.683)"/><rect class="b" width="20.291" height="22.469" transform="translate(73.398 78.228)"/><rect class="a" width="20.291" height="22.469" transform="translate(93.689 78.228)"/><rect class="a" width="20.291" height="22.469" transform="translate(113.942 78.228)"/><rect class="a" width="20.291" height="22.469" transform="translate(134.233 78.228)"/><rect class="a" width="20.291" height="22.469" transform="translate(154.524 78.228)"/><rect class="c" width="20.291" height="22.469" transform="translate(174.815 78.228)"/><rect class="c" width="20.291" height="22.469" transform="translate(195.068 78.228)"/><rect class="a" width="20.291" height="22.469" transform="translate(73.398 100.697)"/><rect class="d" width="20.291" height="22.469" transform="translate(93.689 100.697)"/><rect class="a" width="20.291" height="22.469" transform="translate(113.942 100.697)"/><rect class="a" width="20.291" height="22.469" transform="translate(134.233 100.697)"/><rect class="a" width="20.291" height="22.469" transform="translate(154.524 100.697)"/><rect class="c" width="20.291" height="22.469" transform="translate(174.815 100.697)"/><rect class="c" width="20.291" height="22.469" transform="translate(195.068 100.697)"/><rect class="a" width="20.291" height="22.469" transform="translate(73.398 123.166)"/><rect class="a" width="20.291" height="22.469" transform="translate(93.689 123.166)"/><rect class="a" width="20.291" height="22.469" transform="translate(113.942 123.166)"/><rect class="a" width="20.291" height="22.469" transform="translate(134.233 123.166)"/><rect class="a" width="20.291" height="22.469" transform="translate(154.524 123.166)"/><rect class="c" width="20.291" height="22.469" transform="translate(174.815 123.166)"/><rect class="c" width="20.291" height="22.469" transform="translate(195.068 123.166)"/><rect class="a" width="20.291" height="22.469" transform="translate(73.398 145.636)"/><rect class="a" width="20.291" height="22.469" transform="translate(93.689 145.636)"/><rect class="a" width="20.291" height="22.469" transform="translate(113.942 145.636)"/><rect class="a" width="20.291" height="22.469" transform="translate(134.233 145.636)"/><rect class="a" width="20.291" height="22.469" transform="translate(154.524 145.636)"/><rect class="b" width="20.291" height="22.469" transform="translate(174.815 145.636)"/><rect class="b" width="20.291" height="22.469" transform="translate(195.068 145.636)"/><rect class="c" width="168.596" height="21.667" transform="translate(60.1 43.683)"/><rect class="a" width="13.031" height="17.578" transform="translate(73.398 35.2)"/><rect class="a" width="13.031" height="17.578" transform="translate(137.863 35.2)"/><rect class="a" width="13.031" height="17.578" transform="translate(202.329 35.2)"/><g transform="translate(157.519 160.185)"><path class="e" d="M395.01,389.286A25.006,25.006,0,0,1,406.7,386c6.343,0,13.566,5.694,13.566,5.694l4.2-2.063,11.158,22.2s-30.8,18.915-34.086,21.323-8.178-1.834-6.84-3.974c-3.936,1.49-7.566-1.337-7.643-4.318-3.286,2.369-8.483-.8-7.681-4.356-5.885,2.063-7.834-4.28-6.687-5.426l1.146-1.872Z" transform="translate(-350.467 -376.934)"/><path class="e" d="M367.492,387.161l9.095,3.21s8.292-4.471,13.833-4.471,9.133,2.1,10.891,4.471c1.529,2.025,2.637,5.847,4.012,9.362-1.8,3.707-7.872,2.446-10.47-5.044-5.159,1.872-18.877,8.369-18.877,8.369L365.7,413.146l-6.5-1.949Z" transform="translate(-342.324 -376.872)"/><rect class="f" width="17.845" height="36.226" transform="translate(13.769 0.031) rotate(22.341)"/><rect class="f" width="17.845" height="36.226" transform="matrix(0.901, -0.434, 0.434, 0.901, 70.297, 7.752)"/><line class="g" y1="8.827" x2="8.865" transform="translate(28.913 34.745)"/><line class="g" y1="7.337" x2="7.337" transform="translate(36.594 40.63)"/><line class="g" y1="5.235" x2="4.968" transform="translate(44.237 47.05)"/><path class="e" d="M466.883,491.267h0a2.751,2.751,0,0,1-3.821-.65l-1.376-1.911a2.751,2.751,0,0,1,.65-3.821h0a2.751,2.751,0,0,1,3.821.65l1.376,1.911A2.786,2.786,0,0,1,466.883,491.267Z" transform="translate(-405.335 -437.721)"/><path class="e" d="M477.808,482.095h0a2.751,2.751,0,0,1-3.821-.65l-3.4-4.738a2.751,2.751,0,0,1,.65-3.821h0a2.751,2.751,0,0,1,3.821.65l3.4,4.738A2.751,2.751,0,0,1,477.808,482.095Z" transform="translate(-410.834 -430.307)"/><path class="e" d="M492.223,476.99h0a2.751,2.751,0,0,1-3.821-.65l-2.216-3.133a2.751,2.751,0,0,1,.65-3.821h0a2.751,2.751,0,0,1,3.821.65l2.216,3.133A2.751,2.751,0,0,1,492.223,476.99Z" transform="translate(-420.473 -428.144)"/><path class="e" d="M504.418,469.335h0a2.751,2.751,0,0,1-3.821-.65l-.611-.879a2.751,2.751,0,0,1,.65-3.821h0a2.751,2.751,0,0,1,3.821.65l.611.879A2.751,2.751,0,0,1,504.418,469.335Z" transform="translate(-429 -424.808)"/></g><g transform="translate(103.816 112.925)"><line class="h" y2="1.911"/><line class="h" y2="79.751" transform="translate(0 5.617)"/><path class="h" d="M174.5,466.8v1.911h1.911" transform="translate(-174.5 -379.598)"/><line class="h" x2="48.339" transform="translate(5.503 89.113)"/><line class="h" x2="1.911" transform="translate(55.638 89.113)"/></g></g></svg>