<svg xmlns="http://www.w3.org/2000/svg" width="799" height="830" viewBox="0 0 799 830"><defs><style>.a,.c{fill:none;}.a{stroke:#cfcfcf;}.b{fill:#cfcfcf;}.c{stroke:#009dff;}.d{fill:#009dff;}</style></defs><g transform="translate(-1009 -168)"><path class="a" d="M20493.375-4718.5l-162.727,201.925,571.279,95.213Z" transform="translate(-19236 5195)"/><circle class="b" cx="8" cy="8" r="8" transform="translate(1249 469)"/><circle class="b" cx="8" cy="8" r="8" transform="translate(1658 766)"/><circle class="b" cx="16" cy="16" r="16" transform="translate(1083 662)"/><path class="a" d="M20251-4403l547.059,159.947,228.512-266.6Z" transform="translate(-19236 5195)"/><circle class="b" cx="16" cy="16" r="16" transform="translate(1776 672)"/><circle class="b" cx="16" cy="16" r="16" transform="translate(1546 934)"/><circle class="b" cx="8" cy="8" r="8" transform="translate(1009 784)"/><path class="a" d="M20326-4913.009l368.189,708.041,309.877-815.373Z" transform="translate(-19236 5195)"/><circle class="b" cx="8" cy="8" r="8" transform="translate(1082 274)"/><circle class="b" cx="8" cy="8" r="8" transform="translate(1760 168)"/><circle class="b" cx="8" cy="8" r="8" transform="translate(1450 982)"/><path class="c" d="M20901.928-4933.783,20266.6-4230.935l649.182-334.112Z" transform="translate(-19236 5195)"/><circle class="d" cx="16" cy="16" r="16" transform="translate(1648 254)"/><circle class="d" cx="8" cy="8" r="8" transform="translate(1024 955)"/><circle class="d" cx="8" cy="8" r="8" transform="translate(1672 621)"/><path class="c" d="M20491.645-4888.773l-143.686,296.027,656.107-53.666Z" transform="translate(-19236 5195)"/><circle class="d" cx="8" cy="8" r="8" transform="translate(1104 594)"/><circle class="d" cx="8" cy="8" r="8" transform="translate(1760 540)"/><circle class="d" cx="16" cy="16" r="16" transform="translate(1243 294)"/></g></svg>