<svg xmlns="http://www.w3.org/2000/svg" width="219.425" height="169.623" viewBox="0 0 219.425 169.623"><defs><style>.a{fill:#fff;}.a,.b,.f,.g{stroke:#000;}.a,.f,.g{stroke-linecap:round;stroke-linejoin:round;}.a,.b,.e,.f,.g{stroke-miterlimit:10;stroke-width:3px;}.b,.d,.g{fill:#ccc;}.c,.f{fill:#009dff;}.e{fill:none;stroke:#ccc;}</style></defs><g transform="translate(-34.1 -65)"><g transform="translate(168.169 66.5)"><path class="a" d="M431.726,233.123H356.289a4.2,4.2,0,0,1-4.189-4.189V70.689a4.2,4.2,0,0,1,4.189-4.189h75.479a4.2,4.2,0,0,1,4.189,4.189V228.934A4.237,4.237,0,0,1,431.726,233.123Z" transform="translate(-352.1 -66.5)"/><path class="b" d="M435.914,86.438H352.1V70.689a4.2,4.2,0,0,1,4.189-4.189h75.479a4.2,4.2,0,0,1,4.189,4.189V86.438Z" transform="translate(-352.1 -66.5)"/><path class="b" d="M352.1,416.7h83.856v15.749a4.2,4.2,0,0,1-4.189,4.189H356.289a4.2,4.2,0,0,1-4.189-4.189Z" transform="translate(-352.1 -270.015)"/><circle class="a" cx="6.199" cy="6.199" r="6.199" transform="translate(35.687 150.455)"/><path class="a" d="M445.286,89.8H424.552a2.056,2.056,0,0,1-2.052-2.052h0a2.056,2.056,0,0,1,2.052-2.052h20.734a2.056,2.056,0,0,1,2.052,2.052h0A2.056,2.056,0,0,1,445.286,89.8Z" transform="translate(-393.012 -77.658)"/><g transform="translate(13.109 61.279)"><g transform="translate(0 0)"><path class="c" d="M395.293,238.811a4.622,4.622,0,0,0-.712-2.681,7.081,7.081,0,0,0-2.555-1.969,16.776,16.776,0,0,1-5.864-3.518,7.813,7.813,0,0,1-1.885-5.655,7.6,7.6,0,0,1,7.121-8V212.8h2.89v4.272a7.475,7.475,0,0,1,4.9,2.806,9.573,9.573,0,0,1,1.8,6.032h-5.613a6.366,6.366,0,0,0-.754-3.393,2.35,2.35,0,0,0-2.094-1.173,2.194,2.194,0,0,0-2.011,1.005,4.979,4.979,0,0,0-.628,2.681,3.939,3.939,0,0,0,.67,2.471,9.093,9.093,0,0,0,2.6,2.052,14.521,14.521,0,0,1,5.78,3.518,8.064,8.064,0,0,1,1.927,5.738,7.8,7.8,0,0,1-1.885,5.487,7.888,7.888,0,0,1-5.152,2.429v3.937h-2.89v-3.937a8.762,8.762,0,0,1-5.487-2.555c-1.424-1.466-2.094-3.6-2.052-6.45l.042-.084h5.445a5.771,5.771,0,0,0,.963,3.728A3.133,3.133,0,0,0,392.4,242.5a2.489,2.489,0,0,0,2.178-1.005A4.812,4.812,0,0,0,395.293,238.811Z" transform="translate(-383.396 -212.8)"/></g><g transform="translate(19.98 0)"><path class="c" d="M442.993,238.811a4.622,4.622,0,0,0-.712-2.681,7.081,7.081,0,0,0-2.555-1.969,16.775,16.775,0,0,1-5.864-3.518,7.813,7.813,0,0,1-1.885-5.655,7.6,7.6,0,0,1,7.121-8V212.8h2.89v4.272a7.475,7.475,0,0,1,4.9,2.806,9.573,9.573,0,0,1,1.8,6.032h-5.613a6.366,6.366,0,0,0-.754-3.393,2.35,2.35,0,0,0-2.094-1.173,2.194,2.194,0,0,0-2.011,1.005,4.979,4.979,0,0,0-.628,2.681,3.939,3.939,0,0,0,.67,2.471,9.092,9.092,0,0,0,2.6,2.052,14.521,14.521,0,0,1,5.78,3.518,8.064,8.064,0,0,1,1.927,5.738,7.8,7.8,0,0,1-1.885,5.487,7.888,7.888,0,0,1-5.152,2.429v3.937h-2.89v-3.937a8.762,8.762,0,0,1-5.487-2.555c-1.424-1.466-2.094-3.6-2.052-6.45l.042-.084h5.445a5.771,5.771,0,0,0,.963,3.728A3.133,3.133,0,0,0,440.1,242.5a2.489,2.489,0,0,0,2.178-1.005A4.494,4.494,0,0,0,442.993,238.811Z" transform="translate(-431.096 -212.8)"/></g><g transform="translate(40.043 0)"><path class="c" d="M490.851,238.811a4.622,4.622,0,0,0-.712-2.681,7.081,7.081,0,0,0-2.555-1.969,16.776,16.776,0,0,1-5.864-3.518,7.813,7.813,0,0,1-1.885-5.655,7.6,7.6,0,0,1,7.121-8V212.8h2.89v4.272a7.475,7.475,0,0,1,4.9,2.806,9.573,9.573,0,0,1,1.8,6.032h-5.613a6.366,6.366,0,0,0-.754-3.393,2.35,2.35,0,0,0-2.094-1.173,2.194,2.194,0,0,0-2.01,1.005,4.979,4.979,0,0,0-.628,2.681,3.939,3.939,0,0,0,.67,2.471,9.092,9.092,0,0,0,2.6,2.052,14.521,14.521,0,0,1,5.78,3.518,8.064,8.064,0,0,1,1.927,5.738,7.8,7.8,0,0,1-1.885,5.487,7.888,7.888,0,0,1-5.152,2.429v3.937h-2.848v-3.937a8.762,8.762,0,0,1-5.487-2.555c-1.424-1.466-2.094-3.6-2.052-6.45l.042-.084h5.445a5.771,5.771,0,0,0,.963,3.728A3.133,3.133,0,0,0,488,242.5a2.489,2.489,0,0,0,2.178-1.005A5.181,5.181,0,0,0,490.851,238.811Z" transform="translate(-478.996 -212.8)"/></g></g><rect class="d" width="64.379" height="24.713" transform="translate(9.718 28.943)"/><line class="e" x2="64.379" transform="translate(9.718 115.354)"/><line class="e" x2="64.379" transform="translate(9.718 121.637)"/><line class="e" x2="64.379" transform="translate(9.718 127.962)"/><line class="e" x2="64.379" transform="translate(9.718 134.245)"/></g><g transform="translate(35.6 144.827)"><path class="f" d="M150.494,272.826v17.76a18.609,18.609,0,0,0-18.6,18.6H53.569a18.623,18.623,0,0,0-17.969-18.6v-17.76a18.623,18.623,0,0,0,17.969-18.6V253.6H131.9v.628A18.555,18.555,0,0,0,150.494,272.826Z" transform="translate(-35.6 -253.558)"/><path class="a" d="M53.569,254.228a18.623,18.623,0,0,1-17.969,18.6V253.6H53.569Z" transform="translate(-35.6 -253.558)"/><path class="a" d="M53.627,360.5H35.7V341.9A18.587,18.587,0,0,1,53.627,360.5Z" transform="translate(-35.658 -304.873)"/><path class="a" d="M284.1,253.5v19.268a18.609,18.609,0,0,1-18.6-18.6v-.628h18.6Z" transform="translate(-169.204 -253.5)"/><path class="a" d="M284.1,341.9v18.6H265.5A18.555,18.555,0,0,1,284.1,341.9Z" transform="translate(-169.204 -304.873)"/><ellipse class="a" cx="26.64" cy="20.734" rx="26.64" ry="20.734" transform="translate(30.828 7.079)"/><g transform="translate(44.438 14.953)"><path d="M149.361,305.871a2.98,2.98,0,0,0-.461-1.717,4.583,4.583,0,0,0-1.634-1.257,10.4,10.4,0,0,1-3.77-2.262,5.06,5.06,0,0,1-1.215-3.6,5.2,5.2,0,0,1,1.215-3.518,5.02,5.02,0,0,1,3.309-1.634V289.2h1.843v2.723a4.8,4.8,0,0,1,3.141,1.8,6.11,6.11,0,0,1,1.131,3.854h-3.6a3.894,3.894,0,0,0-.5-2.178,1.509,1.509,0,0,0-1.34-.754,1.467,1.467,0,0,0-1.3.628,3.368,3.368,0,0,0-.377,1.717,2.566,2.566,0,0,0,.419,1.592,4.914,4.914,0,0,0,1.675,1.3,9.6,9.6,0,0,1,3.728,2.262,5.123,5.123,0,0,1-3.267,8.712v2.513h-1.843v-2.513a5.765,5.765,0,0,1-3.518-1.634,5.4,5.4,0,0,1-1.3-4.1l.042-.084h3.477a3.823,3.823,0,0,0,.586,2.388,2.122,2.122,0,0,0,1.634.712,1.57,1.57,0,0,0,1.382-.628A2.2,2.2,0,0,0,149.361,305.871Z" transform="translate(-141.693 -289.2)"/><g transform="translate(14.66)"><path d="M184.361,305.871a2.98,2.98,0,0,0-.461-1.717,4.583,4.583,0,0,0-1.634-1.257,10.4,10.4,0,0,1-3.77-2.262,5.06,5.06,0,0,1-1.215-3.6,5.2,5.2,0,0,1,1.215-3.518,5.02,5.02,0,0,1,3.309-1.634V289.2h1.843v2.723a4.8,4.8,0,0,1,3.141,1.8,6.11,6.11,0,0,1,1.131,3.854h-3.6a3.9,3.9,0,0,0-.5-2.178,1.509,1.509,0,0,0-1.34-.754,1.467,1.467,0,0,0-1.3.628,3.368,3.368,0,0,0-.377,1.717,2.566,2.566,0,0,0,.419,1.592,4.914,4.914,0,0,0,1.675,1.3,9.6,9.6,0,0,1,3.728,2.262,5.123,5.123,0,0,1-3.267,8.712v2.513h-1.843v-2.513a5.766,5.766,0,0,1-3.518-1.634,5.4,5.4,0,0,1-1.3-4.1l.042-.084h3.477a3.823,3.823,0,0,0,.586,2.388,2.122,2.122,0,0,0,1.634.712,1.57,1.57,0,0,0,1.382-.628A2.046,2.046,0,0,0,184.361,305.871Z" transform="translate(-176.693 -289.2)"/></g></g></g><path class="g" d="M272.274,194.994,249.446,181.8v7.707H192.9v10.932h56.546v7.707Z" transform="translate(-91.413 -67.005)"/><path class="a" d="M120.4,148.752l22.828,13.194V154.2h56.546v-10.89H143.228V135.6Z" transform="translate(-49.281 -40.157)"/></g></svg>